<svg width="71" height="87" viewBox="0 0 71 87" fill="none" xmlns="http://www.w3.org/2000/svg">
<path d="M59.8354 86.1912H0.495117V13.0528H59.8358V86.1912H59.8354ZM4.27022 82.3808H56.0603V16.8628H4.27022V82.3808Z" fill="black"/>
<path d="M51.5292 43.5004H8.77148V47.3105H51.5292V43.5004Z" fill="black"/>
<path d="M51.5292 53.698H8.77148V57.5084H51.5292V53.698Z" fill="black"/>
<path d="M9.91395 34.6061L9.87988 25.0976L11.8985 25.0897L11.9119 28.8658L13.4329 28.8606L15.8013 25.0754L18.0489 25.0667L15.0104 29.7097L18.2585 34.5752L16.0238 34.5835L13.4394 30.7082L11.9188 30.7138L11.9326 34.5991L9.91395 34.6061Z" fill="black"/>
<path d="M18.9891 34.5712L18.9551 25.0626L27.1517 25.0326L27.1862 34.5416L25.1809 34.549L25.1533 26.8741L20.9806 26.8897L21.0082 34.5642L18.9891 34.5712Z" fill="black"/>
<path d="M70.8856 38.1762H67.1109V4.65318H33.8936V0.84314H70.8856V38.1762Z" fill="#EC2127"/>
<path d="M51.5292 63.8768H24.0625V67.6872H51.5292V63.8768Z" fill="black"/>
</svg>
