<svg width="94" height="66" viewBox="0 0 94 66" fill="none" xmlns="http://www.w3.org/2000/svg">
<path d="M81.8357 49.5103V45.6998L89.7482 45.6994V4.66726L22.878 4.64594L22.8805 11.8047L19.1054 11.806L19.1016 0.834595L93.5237 0.858098V49.5094L81.8357 49.5103Z" fill="#EC2127"/>
<path fill-rule="evenodd" clip-rule="evenodd" d="M36.2323 52.6683C35.2077 52.6683 34.2374 52.6683 33.2386 52.6683C33.2386 51.0245 33.2386 49.391 33.2386 47.7241C32.6025 47.7241 31.9962 47.7241 31.373 47.7241C31.373 46.9885 31.373 46.2852 31.373 45.5492C31.9837 45.5492 32.5909 45.5492 33.2149 45.5492C33.2149 45.0883 33.2149 44.6618 33.2149 44.1991C32.6133 44.1991 32.0065 44.1991 31.3787 44.1991C31.3787 43.4549 31.3787 42.7446 31.3787 41.9977C31.9867 41.9977 32.593 41.9977 33.2265 41.9977C33.2265 38.2355 33.2265 34.5104 33.2265 30.7569C33.3533 30.7495 33.4559 30.7391 33.5586 30.7391C35.4655 30.7373 37.3725 30.7138 39.2786 30.7447C41.358 30.7791 43.1908 31.4446 44.576 33.0889C45.7015 34.4259 46.1073 36.018 46.0534 37.7398C46.0099 39.1117 45.6308 40.3865 44.8088 41.5015C43.7036 43.0005 42.1946 43.8509 40.3847 44.0598C39.144 44.203 37.8827 44.153 36.6295 44.1882C36.5061 44.1913 36.3806 44.1882 36.2379 44.1882C36.2379 44.6431 36.2379 45.0696 36.2379 45.5327C38.9306 45.5327 41.6194 45.5327 44.3293 45.5327C44.3293 46.2756 44.3293 46.9833 44.3293 47.7167C41.628 47.7167 38.9465 47.7167 36.2332 47.7167C36.2323 49.3741 36.2323 51.0079 36.2323 52.6683ZM36.2288 41.9581C37.1388 41.9581 38.0232 41.9964 38.9034 41.9442C39.4269 41.9137 39.9772 41.8258 40.4542 41.6164C42.0209 40.9301 42.8243 39.6379 43.0071 37.9622C43.2844 35.4235 41.6754 33.3627 39.1613 33.2373C38.2406 33.1912 37.3151 33.2173 36.3923 33.2129C36.3384 33.2121 36.2845 33.2369 36.2288 33.2508C36.2288 36.1473 36.2288 39.0298 36.2288 41.9581Z" fill="black"/>
<path d="M67.4547 14.813H0.662109V65.3676H78.8775V26.0033L67.4547 14.813ZM67.9028 20.9045L73.3813 26.271H67.9028V20.9045ZM4.68129 61.3121V18.8689H63.884V30.3273H74.8587V61.3116H4.68129V61.3121Z" fill="black"/>
</svg>
