<svg width="75" height="92" viewBox="0 0 75 92" fill="none" xmlns="http://www.w3.org/2000/svg">
<path d="M15.5732 0.827454V10.2033H19.3479V4.63751H71.1384V75.5996H62.4092V79.4097H74.914V0.827454H15.5732Z" fill="#EC2127"/>
<path d="M45.5131 13.1829H0.126953V91.7647H59.4677V27.0347L45.5131 13.1829ZM46.6283 19.634L52.9689 25.9279H46.6283V19.634ZM3.90248 87.9547V16.9934H42.8528V29.738H55.6922V87.9547H3.90248Z" fill="black"/>
<path d="M51.161 53.0196H8.40332V56.8301H51.161V53.0196Z" fill="black"/>
<path d="M51.161 63.4905H8.40332V67.3005H51.161V63.4905Z" fill="black"/>
<path d="M51.161 75.0861H8.40332V78.8965H51.161V75.0861Z" fill="black"/>
<path d="M9.80762 45.6423V36.1333H16.3901V37.9669H11.8271V45.6423H9.80762Z" fill="black"/>
<path d="M21.6034 35.9431C24.9412 35.9431 26.6097 38.3073 26.6097 40.8878C26.6097 43.4683 24.9412 45.8317 21.6034 45.8317C18.2656 45.8317 16.5967 43.4683 16.5967 40.8878C16.5967 38.3073 18.2652 35.9431 21.6034 35.9431ZM21.6034 37.8312C19.6382 37.8312 18.6554 39.2174 18.6554 40.8878C18.6554 42.5583 19.6382 43.9436 21.6034 43.9436C23.5548 43.9436 24.5376 42.5578 24.5376 40.8878C24.5372 39.217 23.5548 37.8312 21.6034 37.8312Z" fill="black"/>
<path d="M32.4156 35.9431C33.3578 35.9431 34.3001 36.1472 35.1069 36.5546V38.4971C34.5015 38.0214 33.6265 37.7498 32.7519 37.7498C31.096 37.7498 29.427 38.7008 29.427 40.9966C29.4137 43.0884 31.1093 44.012 32.7519 44.012C33.7214 44.012 34.6093 43.7404 35.1746 43.2237V45.2206C34.3665 45.6145 33.438 45.8317 32.4419 45.8317C29.9256 45.8317 27.3545 44.311 27.3545 40.9966C27.3679 37.5191 29.8984 35.9431 32.4156 35.9431Z" fill="black"/>
<path d="M43.5348 36.1333V37.9669H40.6411V45.6423H38.6358V37.9669H35.7422V36.1333H43.5348Z" fill="black"/>
</svg>
