<svg width="91" height="92" viewBox="0 0 91 92" fill="none" xmlns="http://www.w3.org/2000/svg">
<path d="M37.5296 47.8535C37.3433 47.1579 37.2427 46.4281 37.2427 45.6734C37.2427 45.1903 37.2858 44.7167 37.3637 44.2554H32.9418C33.0201 44.7167 33.0632 45.1898 33.0632 45.6734C33.0632 46.4276 32.9622 47.1579 32.7764 47.8535H37.5296Z" fill="black"/>
<path d="M24.6566 51.1987C21.61 51.1987 19.1309 48.72 19.1309 45.6734C19.1309 42.6263 21.61 40.1476 24.6566 40.1476C27.7032 40.1476 30.1823 42.6263 30.1823 45.6734C30.1823 48.72 27.7032 51.1987 24.6566 51.1987ZM24.6566 43.9581C23.7104 43.9581 22.9409 44.7276 22.9409 45.6734C22.9409 46.6191 23.7108 47.3886 24.6566 47.3886C25.6024 47.3886 26.3723 46.6191 26.3723 45.6734C26.3723 44.7276 25.6024 43.9581 24.6566 43.9581Z" fill="#EC2127"/>
<path d="M45.6488 51.1987C42.6017 51.1987 40.123 48.72 40.123 45.6734C40.123 42.6263 42.6017 40.1476 45.6488 40.1476C48.6958 40.1476 51.1741 42.6263 51.1741 45.6734C51.1741 48.72 48.6958 51.1987 45.6488 51.1987ZM45.6488 43.9581C44.703 43.9581 43.9335 44.7276 43.9335 45.6734C43.9335 46.6191 44.7034 47.3886 45.6488 47.3886C46.5941 47.3886 47.3636 46.6191 47.3636 45.6734C47.3636 44.7276 46.5945 43.9581 45.6488 43.9581Z" fill="#EC2127"/>
<path d="M66.9925 51.1987C63.9455 51.1987 61.4668 48.72 61.4668 45.6729C61.4668 42.6259 63.9455 40.1476 66.9925 40.1476C70.0392 40.1476 72.5183 42.6259 72.5183 45.6729C72.5183 48.72 70.0392 51.1987 66.9925 51.1987ZM66.9925 43.9581C66.0463 43.9581 65.2773 44.7276 65.2773 45.6729C65.2773 46.6196 66.0468 47.3886 66.9925 47.3886C67.9383 47.3886 68.7078 46.6191 68.7078 45.6729C68.7078 44.7272 67.9383 43.9581 66.9925 43.9581Z" fill="#EC2127"/>
<path d="M58.8733 47.8535C58.687 47.1579 58.5865 46.4281 58.5865 45.6734C58.5865 45.1903 58.6296 44.7167 58.7075 44.2554H53.9334C54.0122 44.7167 54.0548 45.1898 54.0548 45.6734C54.0548 46.4276 53.9539 47.1579 53.7676 47.8535H58.8733Z" fill="black"/>
<path d="M82.5027 20.1504C82.5027 20.1504 82.3112 19.9023 82.0736 19.5576C80.696 17.6713 79.1658 15.8773 77.4827 14.1942C68.9721 5.68364 57.6574 0.99704 45.6227 0.99704C33.5881 0.99704 22.2728 5.68364 13.7627 14.1942C12.0844 15.872 10.5576 17.6613 9.18317 19.5411C8.94292 19.83 8.7932 20.0812 8.7932 20.0812C3.44766 27.6264 0.566406 36.6188 0.566406 46.0542C0.566406 55.4775 3.44026 64.4581 8.77187 71.9976C8.77187 71.9976 8.86719 72.1312 8.96294 72.2614C10.3936 74.2534 11.9948 76.145 13.7631 77.9138C22.2733 86.4243 33.5885 91.1105 45.6231 91.1105C57.6578 91.1105 68.9726 86.4239 77.4831 77.9138C79.255 76.1415 80.8588 74.2469 82.2912 72.2505C82.3987 72.1034 82.5179 71.9367 82.5179 71.9367C87.8221 64.4098 90.6799 55.4509 90.6799 46.0533C90.6799 36.6479 87.8165 27.6817 82.5027 20.1504ZM78.2809 20.5434C74.9984 21.346 69.9658 22.4602 64.1515 23.3563C63.0495 20.5969 61.8778 18.0643 60.7693 15.8611C58.6123 11.5776 56.47 8.0487 54.9093 5.64447C64.3186 7.80627 72.5158 13.1792 78.2809 20.5434ZM45.6227 4.59555C47.1025 4.59555 48.5649 4.67477 50.0051 4.82666C51.3978 6.78826 56.5097 14.2782 60.4755 23.8751C55.9508 24.4566 51.1053 24.8561 46.333 24.8561C41.4888 24.8561 36.4645 24.4448 31.7292 23.8494C32.4595 21.8138 33.2094 19.9149 33.928 18.2066C36.6712 11.6864 39.4463 6.71253 40.4891 4.91327C42.1717 4.70436 43.8853 4.59555 45.6227 4.59555ZM35.8987 5.75023C34.5229 8.30027 32.5866 12.1242 30.6359 16.7543C29.6918 18.9944 28.8405 21.1928 28.0802 23.348C21.9038 22.431 16.4894 21.285 13.0128 20.4794C18.6856 13.2628 26.7 7.96949 35.8987 5.75023ZM12.9627 71.5637C16.3976 71.0001 21.6953 70.2101 27.7977 69.5755C28.6312 71.8753 29.5822 74.2269 30.6502 76.6263C32.4029 80.5622 34.1434 83.8747 35.4778 86.2555C26.428 83.9705 18.5525 78.7041 12.9627 71.5637ZM45.6227 87.5128C43.7734 87.5128 41.9519 87.3892 40.1657 87.1538C38.571 84.5071 34.6631 77.66 31.5163 69.2195C36.2726 68.8034 41.3574 68.5158 46.333 68.5158C50.9317 68.5158 55.5343 68.7608 59.8405 69.1264C59.0845 70.9078 58.3133 72.5787 57.5721 74.0985C54.4096 80.5787 51.2102 85.5478 50.0569 87.2752C48.5997 87.431 47.1208 87.5128 45.6227 87.5128ZM54.8466 86.4774C56.4104 83.9535 58.5861 80.2179 60.7784 75.7315C61.8173 73.6054 62.7587 71.5219 63.6027 69.482C69.6898 70.1139 74.9231 70.9278 78.3192 71.5158C72.5397 78.9213 64.3038 84.32 54.8466 86.4774ZM80.6129 68.2685C77.4997 67.7014 71.8116 66.7531 64.9602 66.0092C66.5122 61.7905 67.622 57.7755 68.2897 53.9789C67.8666 54.0442 67.4336 54.0786 66.9927 54.0786C66.1845 54.0786 65.4036 53.962 64.6633 53.7491C63.9012 57.8534 62.6521 61.9124 61.2424 65.6384C56.5314 65.2123 51.4309 64.9168 46.333 64.9168C40.93 64.9168 35.403 65.2489 30.2907 65.7176C29.0251 61.8462 27.987 57.7363 27.4343 53.6073C26.5651 53.9115 25.6307 54.0786 24.6579 54.0786C24.3876 54.0786 24.1213 54.0647 23.8575 54.0403C24.3598 57.8582 25.2781 61.8793 26.6117 66.085C19.6488 66.8327 13.8067 67.7615 10.6547 68.3042C6.84988 62.3454 4.52747 55.3538 4.20583 47.8535H16.5386C16.3519 47.158 16.2514 46.4281 16.2514 45.6734C16.2514 45.1903 16.2949 44.7167 16.3728 44.2554H4.2054C4.53008 36.6893 6.88992 29.6424 10.7535 23.6501C14.036 24.447 19.9491 25.7714 26.9203 26.8282C25.7865 30.4471 24.9269 33.9325 24.3402 37.2755C24.4455 37.2712 24.5508 37.2664 24.6575 37.2664C25.8056 37.2664 26.8989 37.4975 27.8956 37.9145C28.5433 34.2511 29.4877 30.6652 30.5471 27.3383C35.6045 27.9933 41.041 28.4538 46.333 28.4538C51.6146 28.4538 56.9292 27.9942 61.8186 27.3404C63.0025 30.6186 64.0013 34.0783 64.6485 37.5998C65.3932 37.3839 66.1792 37.2655 66.9927 37.2655C67.4218 37.2655 67.8431 37.2986 68.2549 37.3604C67.6064 33.6962 66.6071 30.132 65.4459 26.8099C71.9605 25.7793 77.4092 24.4975 80.5241 23.6988C84.369 29.6803 86.7166 36.7097 87.0404 44.2545H75.2778C75.3566 44.7159 75.3988 45.189 75.3988 45.6725C75.3988 46.4268 75.2983 47.1571 75.112 47.8526H87.0404C86.7188 55.3395 84.4047 62.3176 80.6129 68.2685Z" fill="black"/>
</svg>
