<svg width="83" height="84" viewBox="0 0 83 84" fill="none" xmlns="http://www.w3.org/2000/svg">
<path d="M57.8717 49.8956C57.8717 42.1136 51.5404 35.7822 43.7584 35.7822C35.9769 35.7822 29.6455 42.1136 29.6455 49.8956C29.6455 57.5466 35.7653 63.7949 43.3663 64.0029V72.8325H35.1795V76.3375H43.3663V79.6762H32.5716V83.1811H45.1185V83.1677H46.8712V63.6621C53.1612 62.2402 57.8717 56.6078 57.8717 49.8956ZM43.7584 60.5036C37.9093 60.5036 33.1504 55.7443 33.1504 49.8956C33.1504 44.0465 37.9093 39.2872 43.7584 39.2872C49.6075 39.2872 54.3664 44.0465 54.3664 49.8956C54.3664 55.7443 49.6079 60.5036 43.7584 60.5036Z" fill="#EC2127"/>
<path d="M43.7589 53.0681C40.5494 53.0681 37.9385 50.4571 37.9385 47.2481C37.9385 44.0382 40.5494 41.4268 43.7589 41.4268C46.9687 41.4268 49.5792 44.0382 49.5792 47.2481C49.5792 50.4571 46.9687 53.0681 43.7589 53.0681ZM43.7589 44.9318C42.4823 44.9318 41.4438 45.9711 41.4438 47.2477C41.4438 48.5242 42.4828 49.5622 43.7589 49.5622C45.035 49.5622 46.0743 48.5242 46.0743 47.2477C46.0743 45.9711 45.0354 44.9318 43.7589 44.9318Z" fill="#EC2127"/>
<path d="M82.8413 12.7766V9.67419H82.7882H56.3177C56.3382 8.96563 56.3395 7.36526 56.3395 6.99531C56.3395 5.19561 55.4211 3.46991 53.8195 2.26082C52.354 1.15445 50.4355 0.54425 48.416 0.54425H34.8537C32.8342 0.54425 30.9148 1.15445 29.4494 2.26082C27.8477 3.46991 26.9298 5.19561 26.9298 6.99531C26.9298 7.08758 26.9298 8.96302 26.9481 9.67419H0.42712L0.414062 54.7267H0.42712V76.3967H32.2062L32.1975 72.5862H4.23759V54.7267H27.0056C26.6539 53.5059 26.4332 52.2311 26.3571 50.9167H4.23759V13.8633V13.4851H31.4684C31.6943 13.4943 31.9163 13.4969 32.1304 13.4969C32.4077 13.4969 32.688 13.4916 32.9774 13.4851H50.1935C50.5378 13.4943 50.869 13.5025 51.1946 13.5025C51.1967 13.5025 51.1993 13.5025 51.2024 13.5025C51.3974 13.5025 51.6598 13.5017 51.961 13.4851H79.0313V25.2774L78.9821 50.9171H61.161C61.087 52.1989 60.875 53.4437 60.5386 54.6367V54.7272H79.0313V72.5866H49.868L49.8767 76.3971H82.8413V25.2896L82.8626 14.0287L82.8413 12.7766ZM52.512 9.57974C52.4067 9.61195 52.2069 9.65199 51.8361 9.67463H50.2505C50.1652 9.67245 50.0786 9.6694 49.9907 9.66679C49.4884 9.65199 48.9683 9.63676 48.4156 9.63676H34.8533C34.3149 9.63676 33.8074 9.65112 33.3164 9.66418C33.1854 9.66766 33.0579 9.67158 32.9313 9.67419H31.5625C31.1042 9.65243 30.87 9.60455 30.7542 9.56886C30.7455 9.15104 30.7399 7.22729 30.7399 6.99531C30.7399 5.58863 32.6619 4.35518 34.8533 4.35518H48.4156C50.6066 4.35518 52.5285 5.58863 52.5285 6.99531C52.529 7.24253 52.5216 9.13319 52.512 9.57974Z" fill="black"/>
</svg>
