<svg width="100" height="63" viewBox="0 0 100 63" fill="none" xmlns="http://www.w3.org/2000/svg">
<path d="M56.1919 20.8079C62.9715 21.1948 69.2525 23.6513 74.5076 27.605L77.2197 24.8713C70.5859 19.7224 62.6459 16.9426 54.3039 16.9426C43.7825 16.9426 33.8975 21.3611 26.4702 29.3851C19.0761 37.3734 15.0039 47.9845 15.0039 59.2649V61.1699H30.8361V59.2649C30.8361 45.2116 41.3636 33.7788 54.3039 33.7788C58.308 33.7788 62.081 34.8743 65.383 36.8024L68.1451 34.0177C64.5283 31.7153 60.4569 30.3496 56.1915 30.0371V20.8079H56.1919ZM18.8221 57.3594C19.1352 50.4405 21.1409 43.9955 24.3981 38.502L30.815 44.4016C28.6618 48.3226 27.3918 52.7385 27.1175 57.3594H18.8221ZM34.9955 38.5955C34.2416 39.4099 33.5387 40.2634 32.8862 41.1521L26.5172 35.2965C32.6646 26.9386 41.9462 21.4046 52.4159 20.8079V30.0388C45.827 30.5197 39.699 33.5146 34.9955 38.5955Z" fill="black"/>
<path d="M83.9769 31.5129L81.2778 34.2332C86.2483 40.5193 89.3886 48.555 89.7858 57.3598H81.4904C81.1191 51.0898 78.9128 45.1968 75.1541 40.4057L72.4541 43.1276C75.7755 47.5253 77.7713 53.1468 77.7713 59.2653V61.1703H93.604V59.2653C93.604 48.9589 90.2032 39.2114 83.9769 31.5129Z" fill="black"/>
<path d="M81.9521 8.12512C78.8277 6.20443 75.5283 4.62017 72.0883 3.39455C66.508 1.40639 60.6612 0.397949 54.7118 0.397949C47.4449 0.397949 40.3954 1.88515 33.759 4.8182C27.3537 7.64898 21.6031 11.7006 16.6671 16.8594C11.7345 22.0148 7.86242 28.0171 5.15853 34.7002C2.36019 41.6165 0.941406 48.962 0.941406 56.532C0.941406 58.4445 1.03412 60.373 1.21826 62.2645L4.67467 61.9224C4.50218 60.1441 4.41463 58.3304 4.41463 56.532C4.41463 27.5123 26.9773 3.9029 54.7118 3.9029C64.5001 3.9029 73.8482 6.7933 81.9641 12.2908L81.9521 8.12512Z" fill="#EC2127"/>
<path d="M84.9208 8.94073V12.4461H93.7901L57.2044 49.3707C56.2949 48.8558 55.2513 48.5637 54.143 48.5637C50.6111 48.5637 47.7373 51.5364 47.7373 55.1911C47.7373 58.8457 50.6107 61.818 54.143 61.818C57.6753 61.818 60.5487 58.8457 60.5487 55.1911C60.5487 53.9698 60.2261 52.826 59.6672 51.8424L96.0546 15.1185V23.6839H99.5274V8.94073H84.9208ZM54.1434 58.0075C52.6931 58.0075 51.5124 56.744 51.5124 55.1906C51.5124 53.6373 52.6927 52.3734 54.1434 52.3734C55.5941 52.3734 56.774 53.6373 56.774 55.1906C56.774 56.744 55.5937 58.0075 54.1434 58.0075Z" fill="#EC2127"/>
</svg>
