<svg width="92" height="80" viewBox="0 0 92 80" fill="none" xmlns="http://www.w3.org/2000/svg">
<path d="M91.323 59.3679H0.421875V32.1517H91.323V59.3679ZM4.23149 55.5578H87.513V35.9622H4.23149V55.5578Z" fill="#EC2127"/>
<path d="M11.3308 42.0786C12.0459 42.0786 12.7597 42.2318 13.3725 42.5382V43.9976C12.9129 43.6407 12.2496 43.4365 11.5863 43.4365C10.3315 43.4365 9.06632 44.1516 9.06632 45.8765C9.05674 47.4472 10.3429 48.1414 11.5876 48.141C12.3223 48.141 12.9961 47.9373 13.4248 47.5491L13.4252 49.0489C12.8128 49.3453 12.1086 49.5085 11.3535 49.5085C9.44454 49.5094 7.49555 48.3665 7.49512 45.8765C7.50426 43.2633 9.42234 42.079 11.3308 42.0786Z" fill="black"/>
<path d="M17.5979 42.0773C20.1288 42.0764 21.3949 43.8517 21.3958 45.7907C21.3958 47.7297 20.131 49.5059 17.6001 49.5063C15.0687 49.5072 13.8026 47.7314 13.8018 45.7924C13.8022 43.8535 15.0674 42.0777 17.5979 42.0773ZM17.5983 43.4948C16.1081 43.4953 15.3634 44.5368 15.3634 45.792C15.3638 47.0468 16.1094 48.087 17.5996 48.087C19.079 48.087 19.8237 47.0455 19.8232 45.7907C19.8237 44.5359 19.0786 43.4944 17.5983 43.4948Z" fill="black"/>
<path d="M22.1878 49.3627L22.1865 42.2187L27.1774 42.2178L27.1778 43.5954L23.7177 43.5962L23.719 49.3622L22.1878 49.3627Z" fill="black"/>
<path d="M33.324 42.2166L33.3257 49.3605L31.7946 49.3609L31.7933 43.5941L29.8338 43.5949C29.5892 46.6364 29.2632 49.4432 27.2834 49.4536C27.0383 49.4536 26.7733 49.4227 26.4873 49.3205V47.9738C26.6201 48.0143 26.7728 48.0348 26.9769 48.0243C28.1817 47.9425 28.2417 44.7279 28.425 42.2174L33.324 42.2166Z" fill="black"/>
<path d="M33.9131 49.3605L36.8305 42.2161L38.4839 42.2152L41.3939 49.3588L39.8118 49.3592L39.2913 48.023H36.0253L35.4947 49.3601L33.9131 49.3605ZM36.5049 46.7573L38.8112 46.7569L37.8102 44.1955C37.7597 44.0523 37.7083 43.91 37.657 43.6341C37.6061 43.91 37.5551 44.0523 37.4938 44.1955L36.5049 46.7573Z" fill="black"/>
<path d="M45.0807 42.0716C45.7954 42.0716 46.5096 42.2244 47.122 42.5299V43.9901C46.6624 43.6323 45.9995 43.4287 45.3358 43.4291C44.0806 43.4291 42.8153 44.1442 42.8153 45.8682C42.8062 47.4394 44.0915 48.1331 45.3367 48.1331C46.0713 48.1331 46.7451 47.9286 47.1738 47.5412V49.041C46.5619 49.3374 45.8576 49.5011 45.1021 49.5011C43.1936 49.5011 41.2446 48.3586 41.2441 45.8686C41.2542 43.2563 43.1718 42.0716 45.0807 42.0716Z" fill="black"/>
<path d="M51.3484 42.0703C53.8798 42.0699 55.1459 43.8452 55.1459 45.7842C55.1467 47.7236 53.8815 49.4989 51.3506 49.4998C48.8197 49.5002 47.5532 47.7249 47.5527 45.7859C47.5532 43.8469 48.818 42.0712 51.3484 42.0703ZM51.3489 43.4887C49.859 43.4892 49.1139 44.5307 49.1139 45.7855C49.1148 47.0411 49.8599 48.0814 51.3497 48.0814C52.83 48.0809 53.5747 47.0394 53.5742 45.7842C53.5742 44.529 52.8291 43.4887 51.3489 43.4887Z" fill="black"/>
<path d="M59.0593 42.2117C60.5801 42.2113 61.5293 42.7928 61.5293 44.0171C61.5297 44.8545 61.081 45.365 60.4482 45.5787C61.1528 45.7837 61.8157 46.3038 61.8161 47.3545C61.8166 48.977 60.2549 49.3553 59.0102 49.3557L55.9383 49.3561L55.9365 42.2122L59.0593 42.2117ZM59.0707 46.2733H57.4581V48.1109L58.9893 48.1105C59.673 48.1105 60.2858 47.9673 60.2854 47.1917C60.285 46.4366 59.683 46.2733 59.0707 46.2733ZM58.927 43.467L57.4673 43.4674L57.4677 45.1004L59.0084 45.0995C59.5903 45.0995 60.0086 44.8345 60.0086 44.2835C60.009 43.722 59.6003 43.4665 58.927 43.467Z" fill="black"/>
<path d="M61.915 49.3548L64.8329 42.2109L66.4859 42.21L69.3963 49.3535H67.8142L67.2937 48.0169L64.0277 48.0174L63.4975 49.3548H61.915ZM64.5069 46.7521L66.8136 46.7517L65.813 44.1903C65.7616 44.0476 65.7107 43.9048 65.6594 43.6289C65.6084 43.9048 65.5575 44.0476 65.4962 44.1903L64.5069 46.7521Z" fill="black"/>
<path d="M76.2529 42.2083L76.2542 49.3522H74.7234L74.7226 46.4744L71.5179 46.4753L71.5188 49.3527L69.9876 49.3535L69.9863 42.2096L71.5175 42.2091L71.5179 45.0873L74.7221 45.086V42.2087L76.2529 42.2083Z" fill="black"/>
<path d="M80.8338 42.0646C83.3647 42.0638 84.6312 43.8395 84.6316 45.7785C84.6316 47.7179 83.3673 49.4937 80.8355 49.4941C78.3046 49.4941 77.0385 47.7192 77.0381 45.7802C77.0377 43.8413 78.3033 42.0651 80.8338 42.0646ZM80.8342 43.4831C79.344 43.4839 78.5997 44.525 78.5997 45.7794C78.5997 47.035 79.3453 48.0752 80.8351 48.0752C82.3149 48.0752 83.06 47.0337 83.0596 45.7789C83.0591 44.5242 82.3145 43.4831 80.8342 43.4831Z" fill="black"/>
<path d="M72.0074 75.5116H19.7378V62.3135H15.9277V79.3217H75.8175V62.3135H72.0074V75.5116Z" fill="black"/>
<path d="M61.7341 0.739441H15.9277V29.1355H19.7382V4.54993H59.0491V17.2949H72.0074V29.1355H75.8175V14.5913L61.7341 0.739441ZM62.8592 13.4844V7.19051L69.2585 13.4844H62.8592Z" fill="black"/>
</svg>
