<svg width="86" height="89" viewBox="0 0 86 89" fill="none" xmlns="http://www.w3.org/2000/svg">
<path d="M52.2919 17.68C63.0052 22.0267 70.5809 32.5441 70.5809 44.7991C70.5809 57.1284 62.9138 67.7007 52.0965 71.9983L51.6904 76.2135C56.5433 74.6179 60.9892 71.896 64.707 68.1782C70.9517 61.9339 74.3909 53.6309 74.3909 44.7991C74.3909 35.9677 70.9517 27.6651 64.707 21.4195C61.0192 17.7318 56.6129 15.0237 51.804 13.4225L52.2919 17.68Z" fill="#EC2127"/>
<path d="M42.3553 62.3817C38.1279 62.3817 34.0637 60.9859 30.9108 58.4502C27.7628 55.918 25.6519 52.3669 24.9681 48.4516C24.21 44.1083 25.0443 39.6298 27.318 35.841C29.4985 32.2077 32.8097 29.5863 36.4035 28.6505C36.4422 28.6405 38.2389 28.0124 39.9128 27.7152C40.9164 27.5372 42.3153 27.4009 43.3611 27.4009C45.9425 27.4009 48.6997 27.8854 51.7916 28.8829L53.7558 29.5162L52.9676 31.4238C52.3909 32.8188 52.1837 33.6453 52.1132 34.104C52.9563 33.9782 54.366 33.4851 56.3159 32.6342L58.6509 31.614L58.9682 34.1423C59.5153 38.499 58.2144 40.2896 57.2638 41.5966C56.9304 42.0553 56.7332 42.3382 56.631 42.6381C57.3844 42.5785 58.5425 42.343 60.1494 41.923L62.6803 41.2602L62.5336 43.872C62.2964 48.1125 59.2367 55.8484 51.7785 59.7807L51.6632 59.8417C50.2204 60.6033 48.4246 61.5508 46.571 61.9391C45.1665 62.2329 43.748 62.3817 42.3553 62.3817ZM37.7653 32.2303C37.5529 32.2908 37.4058 32.3269 37.364 32.3369C34.727 33.0242 32.257 35.0158 30.5848 37.8018C28.7821 40.8053 28.121 44.3551 28.7216 47.7957C29.8123 54.04 35.5461 58.5717 42.3553 58.5717C43.4865 58.5717 44.642 58.4498 45.791 58.2091C47.1207 57.9306 48.5896 57.1554 49.8862 56.4716L50.0019 56.4098C54.6567 53.9555 57.2255 49.6088 58.2331 46.2636C57.4601 46.3994 56.832 46.4617 56.2884 46.4617C55.1077 46.4617 54.2246 46.1492 53.5887 45.5059C53.1896 45.1024 52.7165 44.3725 52.73 43.1887C52.7513 41.3254 53.5443 40.2339 54.1819 39.3564C54.628 38.7423 55.0376 38.1796 55.2078 37.1863C53.7245 37.7152 52.6425 37.9454 51.7324 37.9463C51.7324 37.9463 51.732 37.9463 51.7315 37.9463C50.1138 37.9463 49.2673 37.1872 48.8412 36.5505C48.1291 35.4859 48.0791 34.06 48.721 31.9557C46.7812 31.456 45.0141 31.2014 43.3611 31.211C41.5144 31.221 40.5848 31.4251 37.7653 32.2303Z" fill="#EC2127"/>
<path d="M34.3026 88.542L32.6556 76.4625C29.9567 75.7309 27.3627 74.6567 24.9285 73.2618L15.1296 80.7113L5.27593 70.8558L12.7136 61.0691C11.3113 58.6322 10.2306 56.0343 9.49552 53.3306L-2.67188 51.6684V37.7348L9.47507 36.0722C10.2067 33.3546 11.2843 30.7466 12.6858 28.3045L5.27724 18.5439L15.1279 8.69193L24.878 16.0901C27.3279 14.6799 29.9398 13.5962 32.6565 12.8611L34.32 0.743652H47.424L48.8455 15.7793L45.052 16.1375L43.9565 4.55414H37.6421L36.0818 15.9208L34.1228 16.4156C31.3956 17.1042 28.7825 18.1888 26.3565 19.6394L24.6216 20.6788L15.4722 13.7363L10.3216 18.8878L17.2714 28.0434L16.2382 29.7778C14.7958 32.1964 13.7169 34.8065 13.0314 37.5363L12.5387 39.4984L1.1386 41.0587V48.3428L12.5522 49.9018L13.0483 51.8582C13.7386 54.5736 14.8206 57.1759 16.2652 59.5914L17.3049 61.3267L10.3216 70.5133L15.4717 75.6647L24.6647 68.6766L26.3996 69.7089C28.8138 71.1465 31.4139 72.2229 34.1254 72.9092L36.084 73.4037L37.6277 84.7289L43.9643 84.7241L45.0215 73.3806L48.815 73.734L47.4366 88.5316L34.3026 88.542Z" fill="black"/>
<path d="M50.8829 5.36108C68.6613 9.66861 81.9051 25.7149 81.9051 44.7987C81.9051 63.8698 68.6796 79.907 50.9195 84.2275L50.5343 88.2326C58.8781 86.4816 66.5448 82.3547 72.7142 76.1852C81.0986 67.8013 85.7151 56.6549 85.7151 44.7987C85.7151 32.9428 81.0986 21.7956 72.7142 13.4121C66.5174 7.21475 58.8102 3.07914 50.4229 1.34125L50.8829 5.36108Z" fill="#EC2127"/>
</svg>
