<svg width="18" height="18" viewBox="0 0 18 18" fill="none" xmlns="http://www.w3.org/2000/svg">
<path d="M15.0834 6.67117C14.3581 6.06569 13.4363 5.74187 12.4878 5.75944C11.8989 5.77029 11.3235 5.91229 10.8021 6.16937V5.91971C10.8021 5.59479 10.5377 5.33057 10.2129 5.33057H7.12332C6.7984 5.33057 6.53418 5.59479 6.53418 5.91971V17.4107C6.53418 17.7356 6.79854 17.9998 7.12332 17.9998H10.2741C10.5656 17.9998 10.8021 17.7634 10.8021 17.4718V10.5977C10.8021 10.0033 11.2856 9.51992 11.8798 9.51992C12.4742 9.51992 12.9576 10.0033 12.9576 10.5977V17.4717C12.9576 17.7634 13.1941 17.9998 13.4858 17.9998H16.4915C16.7832 17.9998 17.0196 17.7634 17.0196 17.4717V10.8071C17.0196 9.20585 16.3139 7.69825 15.0834 6.67117Z" fill="#F3F1F2"/>
<path d="M4.65325 5.33057H1.61883C1.27867 5.33057 1.00195 5.60728 1.00195 5.94745V17.3832C1.00195 17.7233 1.27867 18 1.61883 18H4.65325C4.99328 18 5.27 17.7233 5.27 17.3832V5.94745C5.27 5.60728 4.99328 5.33057 4.65325 5.33057Z" fill="#F3F1F2"/>
<path d="M3.13604 0C1.94952 0 0.984375 0.965147 0.984375 2.15153C0.984375 3.33805 1.94952 4.3032 3.13604 4.3032C4.32229 4.3032 5.28757 3.33805 5.28757 2.15153C5.28757 0.965147 4.32243 0 3.13604 0Z" fill="#F3F1F2"/>
</svg>
