<svg width="18" height="18" viewBox="0 0 18 18" fill="none" xmlns="http://www.w3.org/2000/svg">
<path d="M9.00046 0C4.03761 0 0 4.03744 0 8.99997C0 13.9626 4.03761 18 9.00046 18C13.9633 18 18.0009 13.9626 18.0009 8.99997C18.0009 4.03744 13.9633 0 9.00046 0ZM9.00046 16.3636C4.93995 16.3636 1.63645 13.0603 1.63645 9.00003C1.63645 4.93973 4.93995 1.63645 9.00046 1.63645C13.061 1.63645 16.3645 4.93973 16.3645 8.99997C16.3645 13.0604 13.061 16.3636 9.00046 16.3636Z" fill="#E5060C"/>
<path d="M9.00084 7.09131C8.54896 7.09131 8.18262 7.45765 8.18262 7.90953V13.3634C8.18262 13.8153 8.54896 14.1817 9.00084 14.1817C9.45272 14.1817 9.81906 13.8153 9.81906 13.3634V7.90953C9.81906 7.45771 9.45272 7.09131 9.00084 7.09131Z" fill="#E5060C"/>
<path d="M9.00084 3.81836C8.78538 3.81836 8.57476 3.90564 8.42208 4.05783C8.26989 4.21002 8.18262 4.42112 8.18262 4.63658C8.18262 4.85205 8.26989 5.06261 8.42208 5.21534C8.57427 5.36753 8.78538 5.45481 9.00084 5.45481C9.21631 5.45481 9.42686 5.36753 9.57954 5.21534C9.73173 5.06261 9.81906 4.85205 9.81906 4.63658C9.81906 4.42112 9.73173 4.21002 9.57954 4.05783C9.42686 3.90558 9.21631 3.81836 9.00084 3.81836Z" fill="#E5060C"/>
</svg>
