<svg width="24" height="18" viewBox="0 0 24 18" fill="none" xmlns="http://www.w3.org/2000/svg">
<path d="M22.8396 0.871549C22.6237 0.608523 22.2657 0.510982 21.9473 0.628032L1.72728 7.93507C1.32332 8.08189 1.03978 8.43792 0.98714 8.86424C0.935006 9.28855 1.12202 9.70024 1.47283 9.9372L4.36309 11.9102C4.6431 12.1014 5.00316 12.122 5.30302 11.9637L11.5726 8.65755L6.68626 12.3061C6.45687 12.4775 6.31981 12.7508 6.31981 13.037V16.4166C6.31981 16.7653 6.51102 17.0846 6.81878 17.2505C7.12705 17.4163 7.49939 17.3998 7.79218 17.2067L9.98804 15.7502L12.1474 17.2225C12.3366 17.3522 12.562 17.4205 12.7893 17.4205C12.8662 17.4205 12.9434 17.4126 13.0194 17.3968C13.3226 17.3335 13.5909 17.1462 13.7555 16.8828L22.9037 1.79786C23.0818 1.50742 23.0563 1.13575 22.8396 0.871549Z" fill="#F3F1F2"/>
</svg>
